<svg width="47" height="47" viewBox="0 0 47 47" fill="none" xmlns="http://www.w3.org/2000/svg">
<g id="Btn LinkedIn">
<circle id="Ellipse 2" cx="23.4983" cy="23.5" r="23.5" fill="white"/>
<path id="Vector" d="M23.4983 0C10.5189 0 -0.00170898 10.5207 -0.00170898 23.5C-0.00170898 36.4779 10.5189 47 23.4983 47C36.4776 47 46.9983 36.4779 46.9983 23.5C46.9983 10.5207 36.4776 0 23.4983 0Z" fill="black"/>
<path id="Vector_2" d="M35.9983 34.9985V26.1015C35.9983 21.3348 33.3549 19.1167 29.8289 19.1167C26.9837 19.1167 25.7094 20.623 25 21.6799V19.4806H19.6409C19.7117 20.9376 19.6409 34.9985 19.6409 34.9985H25V26.3321C25 25.8696 25.0346 25.4057 25.1762 25.0751C25.5633 24.1488 26.4444 23.189 27.925 23.189C29.865 23.189 30.6407 24.6112 30.6407 26.6974V35L35.9983 34.9985ZM13.9941 17.3626C15.8618 17.3626 17.0261 16.1694 17.0261 14.6806C16.9915 13.1583 15.8618 12 14.0288 12C12.1957 12 10.9983 13.1583 10.9983 14.6806C10.9983 16.1709 12.1611 17.3626 13.961 17.3626H13.9941ZM16.6737 34.9985V19.4806H11.3161V34.9985H16.6737Z" fill="white"/>
</g>
</svg>
