<svg width="47" height="47" viewBox="0 0 47 47" fill="none" xmlns="http://www.w3.org/2000/svg">
<g id="Btn Mail">
<circle id="Ellipse 2" cx="23.5002" cy="23.5" r="23.5" fill="white"/>
<path id="Vector" fill-rule="evenodd" clip-rule="evenodd" d="M23.5002 0C17.2677 0 11.2903 2.47589 6.88323 6.88299C2.47613 11.2901 0.000244141 17.2674 0.000244141 23.5C0.000244141 29.7326 2.47613 35.7099 6.88323 40.117C11.2903 44.5241 17.2677 47 23.5002 47C29.7328 47 35.7101 44.5241 40.1173 40.117C44.5244 35.7099 47.0002 29.7326 47.0002 23.5C47.0002 17.2674 44.5244 11.2901 40.1173 6.88299C35.7101 2.47589 29.7328 0 23.5002 0ZM12.4607 16.2837H34.5579L23.5129 25.0456L12.4607 16.2837ZM10.8753 17.3358L22.9597 26.9111C23.1193 27.0372 23.3167 27.1058 23.5201 27.1058C23.7235 27.1058 23.9209 27.0372 24.0805 26.9111L36.1288 17.343V30.7163H10.8753V17.3358Z" fill="black"/>
</g>
</svg>
