<svg width="47" height="47" viewBox="0 0 47 47" fill="none" xmlns="http://www.w3.org/2000/svg">
<g id="Btn Share">
<circle id="Ellipse 2" cx="23.4968" cy="23.5" r="23.5" fill="white"/>
<path id="Vector" d="M23.4968 0C10.519 0 -0.00317383 10.5221 -0.00317383 23.5C-0.00317383 36.4779 10.519 47 23.4968 47C36.4747 47 46.9968 36.4779 46.9968 23.5C46.9968 10.5192 36.4747 0 23.4968 0ZM28.376 28.8257C29.1571 28.2367 30.1143 27.929 31.0923 27.9523C32.0703 27.9756 33.0117 28.3286 33.7639 28.9541C34.5161 29.5796 35.0349 30.4408 35.2362 31.3982C35.4375 32.3555 35.3095 33.3528 34.8728 34.2282C34.4362 35.1036 33.7167 35.8059 32.8309 36.2211C31.9451 36.6363 30.945 36.74 29.9928 36.5155C29.0407 36.291 28.1923 35.7514 27.5853 34.9842C26.9783 34.217 26.6483 33.2673 26.6488 32.289V32.2861L15.5773 26.9339C14.8776 27.3879 14.0614 27.6297 13.2273 27.6301C12.0954 27.6007 11.0197 27.1303 10.2296 26.3193C9.43938 25.5083 8.99717 24.4208 8.99717 23.2885C8.99717 22.1562 9.43938 21.0687 10.2296 20.2577C11.0197 19.4467 12.0954 18.9763 13.2273 18.9469C14.2496 18.9469 15.1866 19.3023 15.9298 19.8927L26.6458 14.7169V14.7139C26.6453 13.7357 26.9754 12.7859 27.5824 12.0187C28.1894 11.2516 29.0377 10.712 29.9899 10.4874C30.9421 10.2629 31.9422 10.3667 32.8279 10.7819C33.7137 11.197 34.4333 11.8993 34.8699 12.7747C35.3065 13.6502 35.4346 14.6474 35.2333 15.6048C35.032 16.5621 34.5132 17.4234 33.761 18.0489C33.0088 18.6743 32.0674 19.0274 31.0894 19.0507C30.1114 19.074 29.1542 18.7662 28.3731 18.1772L17.5631 23.4001C17.5631 23.4648 17.5572 23.5323 17.5543 23.5969L28.376 28.8257Z" fill="black"/>
</g>
</svg>
