<svg width="47" height="47" viewBox="0 0 47 47" fill="none" xmlns="http://www.w3.org/2000/svg">
<g id="Btn Whatsapp">
<circle id="Ellipse 2" cx="23.5002" cy="23.5" r="23.5" fill="white"/>
<path id="Vector" d="M23.5061 0H23.4943C10.537 0 0.00021394 10.5397 0.00021394 23.5C-0.00783216 28.4497 1.55899 33.2736 4.47402 37.2739L1.54534 46.0041L10.5781 43.1166C14.4097 45.6586 18.9079 47.0098 23.5061 46.9999C36.4634 46.9999 47.0002 36.4573 47.0002 23.5C47.0002 10.5427 36.4634 0 23.5061 0ZM37.1801 33.1849C36.6132 34.7858 34.3631 36.1136 32.5683 36.5013C31.3404 36.7628 29.7365 36.9713 24.3374 34.733C17.4313 31.8718 12.984 24.8542 12.6373 24.3988C12.3054 23.9435 9.84671 20.6829 9.84671 17.3107C9.84671 13.9384 11.5593 12.2964 12.2496 11.5914C12.8165 11.0127 13.7536 10.7483 14.6525 10.7483C14.9433 10.7483 15.2047 10.763 15.4397 10.7747C16.13 10.8041 16.4766 10.8452 16.932 11.935C17.4989 13.301 18.8795 16.6732 19.044 17.0199C19.2114 17.3665 19.3789 17.8365 19.1439 18.2918C18.9236 18.7618 18.7297 18.9704 18.3831 19.3699C18.0365 19.7694 17.7075 20.0749 17.3608 20.5037C17.0436 20.8768 16.6852 21.2763 17.0847 21.9666C17.4842 22.6422 18.8648 24.8953 20.8976 26.7048C23.5208 29.0401 25.6475 29.7862 26.4083 30.1035C26.9753 30.3385 27.6509 30.2827 28.0651 29.842C28.5909 29.2751 29.2401 28.3351 29.901 27.4098C30.371 26.7459 30.9644 26.6637 31.5871 26.8987C32.2216 27.119 35.5792 28.7787 36.2695 29.1223C36.9598 29.469 37.4151 29.6335 37.5826 29.9243C37.7471 30.2151 37.7471 31.581 37.1801 33.1849Z" fill="black"/>
</g>
</svg>
