<svg width="128" height="41" viewBox="0 0 128 41" fill="none" xmlns="http://www.w3.org/2000/svg">
<path d="M62.9691 19.0181H56.242C56.1587 19.0181 56.0787 19.051 56.0198 19.1096C55.9608 19.1682 55.9277 19.2477 55.9277 19.3305V22.5995C55.9277 22.6823 55.9608 22.7618 56.0198 22.8203C56.0787 22.8789 56.1587 22.9118 56.242 22.9118H58.8656V26.973C58.8656 26.973 58.2765 27.173 56.6463 27.173C54.725 27.173 52.0398 26.4757 52.0398 20.6076C52.0398 14.7389 54.8363 13.966 57.4617 13.966C59.7338 13.966 60.7121 14.3634 61.3357 14.5552C61.5306 14.6139 61.7129 14.4202 61.7129 14.2478L62.463 11.0895C62.4642 11.0422 62.4538 10.9953 62.4328 10.9529C62.4118 10.9104 62.3807 10.8737 62.3423 10.8458C62.0889 10.6658 60.5461 9.80862 56.6475 9.80862C52.1562 9.80862 47.5491 11.7068 47.5491 20.8363C47.5491 29.9645 52.8238 31.3247 57.2687 31.3247C60.9491 31.3247 63.1816 29.7615 63.1816 29.7615C63.2734 29.7115 63.2834 29.5834 63.2834 29.5241V19.3299C63.2834 19.247 63.2503 19.1676 63.1914 19.109C63.1324 19.0504 63.0524 19.0181 62.9691 19.0181ZM97.3279 10.5884H93.5394C93.4981 10.5885 93.4571 10.5968 93.419 10.6127C93.3809 10.6286 93.3463 10.6518 93.3172 10.681C93.2882 10.7102 93.2652 10.7448 93.2496 10.7828C93.2339 10.8208 93.226 10.8616 93.2263 10.9026L93.2276 18.1778H87.3228V10.9026C87.3231 10.8616 87.3152 10.8209 87.2996 10.783C87.2841 10.745 87.2611 10.7104 87.2321 10.6812C87.2031 10.652 87.1686 10.6288 87.1305 10.6129C87.0925 10.5969 87.0517 10.5886 87.0104 10.5884H83.2225C83.1812 10.5885 83.1403 10.5968 83.1021 10.6127C83.064 10.6286 83.0294 10.6518 83.0004 10.681C82.9713 10.7102 82.9483 10.7448 82.9327 10.7828C82.9171 10.8208 82.9092 10.8616 82.9094 10.9026V30.6025C82.9094 30.7755 83.0502 30.9167 83.2225 30.9167H87.0104C87.0517 30.9165 87.0926 30.9081 87.1307 30.8922C87.1688 30.8762 87.2033 30.8529 87.2323 30.8237C87.2614 30.7944 87.2843 30.7598 87.2998 30.7217C87.3154 30.6837 87.3232 30.6429 87.3228 30.6018V22.1758H93.2276L93.2175 30.6018C93.2175 30.7755 93.3583 30.9167 93.5318 30.9167H97.3279C97.3692 30.9165 97.4101 30.9081 97.4482 30.8922C97.4863 30.8762 97.5208 30.8529 97.5498 30.8237C97.5789 30.7944 97.6018 30.7598 97.6173 30.7217C97.6329 30.6837 97.6407 30.6429 97.6404 30.6018V10.902C97.6404 10.7283 97.502 10.5884 97.3279 10.5884ZM67.6749 11.0364C66.3269 11.0364 65.233 12.1316 65.233 13.4874C65.233 14.8414 66.3269 15.9398 67.6749 15.9398C69.024 15.9398 70.1173 14.8414 70.1173 13.4874C70.1173 12.1316 69.0234 11.0364 67.6749 11.0364ZM69.5333 17.0394H65.7573C65.5838 17.0394 65.4292 17.2168 65.4292 17.3893V30.4175C65.4292 30.8005 65.6693 30.9142 65.9799 30.9142H69.3811C69.7552 30.9142 69.8464 30.7318 69.8464 30.4113V26.4463V17.3537C69.8465 17.3126 69.8386 17.272 69.8229 17.234C69.8073 17.1961 69.7843 17.1615 69.7552 17.1324C69.7261 17.1033 69.6916 17.0801 69.6535 17.0643C69.6154 17.0484 69.5746 17.0396 69.5333 17.0394ZM112.037 17.0688H108.277C108.236 17.0691 108.195 17.0775 108.157 17.0935C108.119 17.1095 108.085 17.1328 108.056 17.162C108.027 17.1913 108.004 17.2259 107.988 17.2639C107.973 17.3019 107.965 17.3426 107.965 17.3837V27.043C107.965 27.043 107.01 27.7365 105.655 27.7365C104.3 27.7365 103.941 27.1261 103.941 25.8072V17.3837C103.941 17.3426 103.933 17.3018 103.917 17.2638C103.902 17.2257 103.879 17.191 103.85 17.1618C103.821 17.1326 103.786 17.1093 103.748 17.0933C103.71 17.0773 103.669 17.069 103.628 17.0688H99.8131C99.7296 17.0694 99.6498 17.1029 99.5911 17.1619C99.5325 17.221 99.4997 17.3007 99.5 17.3837V26.4445C99.5 30.3619 101.697 31.3204 104.719 31.3204C107.199 31.3204 109.198 29.9583 109.198 29.9583C109.198 29.9583 109.293 30.6768 109.337 30.7612C109.381 30.8461 109.492 30.9317 109.613 30.9317L112.04 30.9211C112.081 30.9209 112.122 30.9127 112.161 30.8968C112.199 30.8808 112.234 30.8576 112.263 30.8284C112.292 30.7991 112.315 30.7645 112.331 30.7263C112.347 30.6882 112.355 30.6474 112.354 30.6062L112.352 17.3818C112.352 17.2989 112.319 17.2195 112.26 17.1608C112.201 17.1021 112.121 17.0688 112.038 17.0681L112.037 17.0688ZM122.311 16.6264C120.176 16.6264 118.724 17.573 118.724 17.573V10.902C118.724 10.861 118.716 10.8203 118.7 10.7823C118.685 10.7443 118.662 10.7098 118.633 10.6806C118.604 10.6514 118.569 10.6282 118.531 10.6122C118.493 10.5963 118.452 10.588 118.411 10.5877H114.613C114.572 10.5877 114.531 10.5959 114.493 10.6117C114.454 10.6275 114.42 10.6507 114.39 10.6799C114.361 10.7091 114.338 10.7438 114.322 10.7819C114.307 10.82 114.299 10.8608 114.299 10.902V30.6018C114.299 30.643 114.307 30.6838 114.322 30.722C114.338 30.7601 114.361 30.7947 114.39 30.824C114.42 30.8532 114.454 30.8763 114.493 30.8922C114.531 30.908 114.572 30.9161 114.613 30.9161H117.249C117.368 30.9161 117.457 30.8555 117.523 30.7487C117.588 30.6425 117.683 29.8402 117.683 29.8402C117.683 29.8402 119.236 31.3022 122.177 31.3022C125.629 31.3022 127.609 29.5628 127.609 23.491C127.609 17.4193 124.447 16.6258 122.31 16.6258L122.311 16.6264ZM120.827 27.7253C119.524 27.6859 118.639 27.098 118.639 27.098V20.8594C118.639 20.8594 119.512 20.3283 120.582 20.2321C121.936 20.1115 123.24 20.5183 123.24 23.7272C123.24 27.1117 122.652 27.7796 120.828 27.7247L120.827 27.7253ZM80.7863 27.6516C80.621 27.6516 80.1972 27.7184 79.7615 27.7184C78.3658 27.7184 77.8924 27.0736 77.8924 26.2389V20.6994H80.7341C80.7756 20.6994 80.8167 20.6913 80.855 20.6754C80.8933 20.6596 80.9281 20.6363 80.9573 20.6071C80.9865 20.5778 81.0096 20.5431 81.0253 20.5049C81.0409 20.4667 81.0488 20.4258 81.0485 20.3845V17.3505C81.0486 17.3094 81.0406 17.2687 81.0249 17.2306C81.0092 17.1926 80.986 17.158 80.9568 17.1288C80.9276 17.0997 80.8929 17.0766 80.8547 17.0608C80.8165 17.045 80.7755 17.0369 80.7341 17.0369H77.8924L77.888 13.3069C77.888 13.165 77.8151 13.0944 77.6504 13.0944H73.7776C73.628 13.0944 73.5469 13.1607 73.5469 13.3037V17.1587C73.5469 17.1587 71.6061 17.6242 71.4753 17.6617C71.41 17.6806 71.3527 17.7201 71.3119 17.7741C71.2711 17.8282 71.249 17.894 71.249 17.9616V20.3839C71.2487 20.4249 71.2566 20.4656 71.2722 20.5036C71.2878 20.5416 71.3107 20.5762 71.3397 20.6054C71.3687 20.6346 71.4033 20.6578 71.4413 20.6737C71.4793 20.6896 71.5202 20.698 71.5615 20.6982H73.5469V26.5263C73.5469 30.8561 76.6023 31.281 78.6645 31.281C79.6056 31.281 80.7329 30.9811 80.919 30.9124C81.0321 30.8705 81.0969 30.7549 81.0969 30.6293L81.0994 27.9646C81.0981 27.882 81.0646 27.8032 81.006 27.7446C80.9473 27.6861 80.8681 27.6525 80.785 27.6509L80.7863 27.6516Z" fill="#100E0F"/>
<path fill-rule="evenodd" clip-rule="evenodd" d="M21.1843 0.513123C9.77029 0.513123 0.513916 9.76707 0.513916 21.1835C0.513916 30.316 6.4364 38.0643 14.6497 40.7972C15.6826 40.9886 16.062 40.3488 16.062 39.8027C16.062 39.31 16.0426 37.6815 16.0338 35.9548C10.2829 37.2048 9.0697 33.5158 9.0697 33.5158C8.12958 31.1264 6.77455 30.4909 6.77455 30.4909C4.89918 29.2083 6.91545 29.2345 6.91545 29.2345C8.99148 29.3803 10.0846 31.365 10.0846 31.365C11.9279 34.5249 14.9203 33.611 16.0994 33.0829C16.2855 31.7468 16.8209 30.8344 17.4122 30.3184C12.8209 29.7962 7.99452 28.0233 7.99452 20.103C7.99452 17.8462 8.802 16.0024 10.1245 14.5546C9.90973 14.0338 9.20234 11.931 10.3246 9.08397C10.3246 9.08397 12.0601 8.52913 16.0091 11.2037C17.6585 10.7456 19.427 10.5158 21.1833 10.508C22.9402 10.5162 24.7096 10.7461 26.3615 11.2037C30.3066 8.52961 32.0401 9.08445 32.0401 9.08445C33.1653 11.9315 32.4579 14.0338 32.2432 14.5551C33.5686 16.002 34.3702 17.8462 34.3702 20.1035C34.3702 28.0422 29.5346 29.7903 24.9317 30.3014C25.6731 30.9428 26.3338 32.2011 26.3338 34.1299C26.3338 36.8954 26.3105 39.121 26.3105 39.8017C26.3105 40.3507 26.6827 40.9959 27.7302 40.7928C35.939 38.0565 41.8538 30.3112 41.8538 21.1816C41.8547 9.76756 32.6003 0.513123 21.1843 0.513123Z" fill="#181616"/>
<path d="M8.3434 30.1907C8.29725 30.2937 8.13546 30.3243 7.98873 30.2538C7.83812 30.1858 7.75455 30.0464 7.80314 29.9429C7.84686 29.8379 8.00914 29.8083 8.15927 29.8787C8.30988 29.9468 8.3949 30.0877 8.3434 30.1907ZM9.18052 31.1254C9.08189 31.2163 8.88901 31.174 8.75783 31.0292C8.62276 30.8849 8.5975 30.6921 8.69758 30.5997C8.79864 30.5084 8.98569 30.5512 9.12027 30.6955C9.25631 30.8412 9.28303 31.0321 9.18003 31.1249L9.18052 31.1254ZM9.99528 32.3148C9.86896 32.4032 9.66151 32.3206 9.53373 32.1365C9.40644 31.9533 9.40644 31.7332 9.53616 31.6443C9.66442 31.5559 9.86848 31.6356 9.99771 31.8178C10.125 32.0048 10.125 32.2254 9.99528 32.3148ZM11.1118 33.4653C10.9986 33.5901 10.7571 33.5566 10.5807 33.3861C10.4 33.2194 10.35 32.9828 10.4632 32.858C10.5783 32.7331 10.8207 32.7681 10.9986 32.9372C11.1783 33.1033 11.2327 33.3409 11.1118 33.4653ZM12.6529 34.1328C12.6023 34.2951 12.3701 34.3685 12.1359 34.3C11.9018 34.229 11.7492 34.0395 11.7958 33.8763C11.8444 33.7131 12.0786 33.6368 12.3142 33.7101C12.5474 33.7801 12.701 33.9676 12.6529 34.1328ZM14.3436 34.2567C14.3499 34.4268 14.1512 34.5686 13.9054 34.5715C13.6586 34.5774 13.4584 34.4394 13.4555 34.2713C13.4555 34.0993 13.6498 33.9594 13.8966 33.9555C14.1425 33.9506 14.3436 34.0876 14.3436 34.2567ZM15.9178 33.989C15.9469 34.1552 15.7769 34.3262 15.5325 34.3714C15.2925 34.4161 15.0709 34.3131 15.0398 34.1479C15.0107 33.9778 15.1841 33.8078 15.4237 33.7631C15.668 33.7203 15.8867 33.8199 15.9178 33.989Z" fill="#181616"/>
</svg>
