<svg width="70" height="38" viewBox="0 0 70 38" fill="none" xmlns="http://www.w3.org/2000/svg">
<path d="M5.26874 30.082L5.23274 30.07L5.02874 30.286C4.58874 30.742 4.02474 30.97 3.33674 30.97C2.84074 30.97 2.39274 30.858 1.99274 30.634C1.60074 30.41 1.28874 30.094 1.05674 29.686C0.832743 29.27 0.720743 28.79 0.720743 28.246C0.720743 27.662 0.844743 27.162 1.09274 26.746C1.34874 26.322 1.68874 26.002 2.11274 25.786C2.54474 25.57 3.02074 25.462 3.54074 25.462C4.02874 25.462 4.49274 25.566 4.93274 25.774C5.37274 25.974 5.73274 26.294 6.01274 26.734C6.29274 27.174 6.43274 27.726 6.43274 28.39C6.43274 28.87 6.36474 29.326 6.22874 29.758C6.09274 30.19 5.91674 30.594 5.70074 30.97C5.48474 31.338 5.20874 31.77 4.87274 32.266L3.69674 34.03L2.55674 34.042L5.26874 30.082ZM3.60074 30.166C3.97674 30.166 4.30074 30.078 4.57274 29.902C4.85274 29.726 5.06474 29.494 5.20874 29.206C5.36074 28.91 5.43674 28.59 5.43674 28.246C5.43674 27.902 5.36074 27.586 5.20874 27.298C5.06474 27.002 4.85274 26.766 4.57274 26.59C4.29274 26.414 3.96474 26.326 3.58874 26.326C3.19674 26.326 2.85674 26.414 2.56874 26.59C2.28874 26.766 2.07274 27.002 1.92074 27.298C1.77674 27.586 1.70474 27.898 1.70474 28.234C1.70474 28.562 1.77674 28.874 1.92074 29.17C2.07274 29.466 2.29274 29.706 2.58074 29.89C2.86874 30.074 3.20874 30.166 3.60074 30.166ZM12.5269 33.106V34.03H8.26687V33.106H9.97087V26.866H9.92287L8.24287 28.45V27.214L9.92287 25.63H10.9429V33.106H12.5269ZM16.6568 34.15C15.6488 34.15 14.8928 33.806 14.3888 33.118C13.8928 32.422 13.6448 31.522 13.6448 30.418V29.17C13.6448 28.066 13.8928 27.174 14.3888 26.494C14.8928 25.806 15.6488 25.462 16.6568 25.462C17.6648 25.462 18.4168 25.806 18.9128 26.494C19.4088 27.174 19.6568 28.066 19.6568 29.17V30.418C19.6568 31.522 19.4048 32.422 18.9008 33.118C18.4048 33.806 17.6568 34.15 16.6568 34.15ZM16.6568 33.238C17.2648 33.238 17.7288 32.998 18.0488 32.518C18.3768 32.038 18.5408 31.326 18.5408 30.382V29.218C18.5408 28.274 18.3808 27.566 18.0608 27.094C17.7408 26.614 17.2728 26.374 16.6568 26.374C16.0408 26.374 15.5688 26.614 15.2408 27.094C14.9208 27.566 14.7608 28.274 14.7608 29.218V30.382C14.7608 31.326 14.9208 32.038 15.2408 32.518C15.5688 32.998 16.0408 33.238 16.6568 33.238ZM26.8081 34.078C26.2721 34.078 25.8001 33.974 25.3921 33.766C24.9841 33.558 24.6601 33.29 24.4201 32.962C24.1801 32.626 24.0281 32.262 23.9641 31.87H24.9961C25.1241 32.302 25.3521 32.622 25.6801 32.83C26.0081 33.038 26.3801 33.142 26.7961 33.142C27.3801 33.142 27.8321 32.958 28.1521 32.59C28.4721 32.214 28.6321 31.722 28.6321 31.114C28.6321 30.466 28.4561 29.978 28.1041 29.65C27.7521 29.322 27.3121 29.158 26.7841 29.158C26.2481 29.158 25.8641 29.278 25.6321 29.518C25.4081 29.758 25.2521 29.99 25.1641 30.214L24.0841 30.142L24.3121 25.63H29.0881V26.59H25.1761L25.0321 29.29H25.0801C25.4881 28.674 26.1281 28.366 27.0001 28.366C27.5201 28.366 27.9801 28.478 28.3801 28.702C28.7881 28.918 29.1041 29.234 29.3281 29.65C29.5521 30.058 29.6641 30.55 29.6641 31.126C29.6641 31.686 29.5481 32.19 29.3161 32.638C29.0921 33.086 28.7641 33.438 28.3321 33.694C27.9001 33.95 27.3921 34.078 26.8081 34.078ZM34.0503 34.078C33.5143 34.078 33.0423 33.974 32.6343 33.766C32.2263 33.558 31.9023 33.29 31.6623 32.962C31.4223 32.626 31.2703 32.262 31.2063 31.87H32.2383C32.3663 32.302 32.5943 32.622 32.9223 32.83C33.2503 33.038 33.6223 33.142 34.0383 33.142C34.6223 33.142 35.0743 32.958 35.3943 32.59C35.7143 32.214 35.8743 31.722 35.8743 31.114C35.8743 30.466 35.6983 29.978 35.3463 29.65C34.9943 29.322 34.5543 29.158 34.0263 29.158C33.4903 29.158 33.1063 29.278 32.8743 29.518C32.6503 29.758 32.4943 29.99 32.4063 30.214L31.3263 30.142L31.5543 25.63H36.3303V26.59H32.4183L32.2743 29.29H32.3223C32.7303 28.674 33.3703 28.366 34.2423 28.366C34.7623 28.366 35.2223 28.478 35.6223 28.702C36.0303 28.918 36.3463 29.234 36.5703 29.65C36.7943 30.058 36.9063 30.55 36.9063 31.126C36.9063 31.686 36.7903 32.19 36.5583 32.638C36.3343 33.086 36.0063 33.438 35.5743 33.694C35.1423 33.95 34.6343 34.078 34.0503 34.078ZM38.4005 33.13L40.4165 31.318L40.6325 31.138C41.1445 30.69 41.5445 30.322 41.8325 30.034C42.1285 29.738 42.3725 29.418 42.5645 29.074C42.7645 28.73 42.8645 28.37 42.8645 27.994C42.8645 27.538 42.7245 27.154 42.4445 26.842C42.1725 26.522 41.7565 26.362 41.1965 26.362C40.5325 26.362 40.0805 26.55 39.8405 26.926C39.6005 27.294 39.4805 27.702 39.4805 28.15V28.234H38.4605C38.4605 27.754 38.5525 27.306 38.7365 26.89C38.9205 26.466 39.2165 26.122 39.6245 25.858C40.0405 25.586 40.5645 25.45 41.1965 25.45C41.7965 25.45 42.2965 25.57 42.6965 25.81C43.0965 26.042 43.3885 26.35 43.5725 26.734C43.7645 27.11 43.8605 27.518 43.8605 27.958C43.8605 28.446 43.7525 28.898 43.5365 29.314C43.3205 29.722 43.0565 30.09 42.7445 30.418C42.4325 30.738 42.0045 31.134 41.4605 31.606L39.8165 33.046V33.106H43.9445V34.03H38.4005V33.13ZM51.0776 34.078C50.5416 34.078 50.0696 33.974 49.6616 33.766C49.2536 33.558 48.9296 33.29 48.6896 32.962C48.4496 32.626 48.2976 32.262 48.2336 31.87H49.2656C49.3936 32.302 49.6216 32.622 49.9496 32.83C50.2776 33.038 50.6496 33.142 51.0656 33.142C51.6496 33.142 52.1016 32.958 52.4216 32.59C52.7416 32.214 52.9016 31.722 52.9016 31.114C52.9016 30.466 52.7256 29.978 52.3736 29.65C52.0216 29.322 51.5816 29.158 51.0536 29.158C50.5176 29.158 50.1336 29.278 49.9016 29.518C49.6776 29.758 49.5216 29.99 49.4336 30.214L48.3536 30.142L48.5816 25.63H53.3576V26.59H49.4456L49.3016 29.29H49.3496C49.7576 28.674 50.3976 28.366 51.2696 28.366C51.7896 28.366 52.2496 28.478 52.6496 28.702C53.0576 28.918 53.3736 29.234 53.5976 29.65C53.8216 30.058 53.9336 30.55 53.9336 31.126C53.9336 31.686 53.8176 32.19 53.5856 32.638C53.3616 33.086 53.0336 33.438 52.6016 33.694C52.1696 33.95 51.6616 34.078 51.0776 34.078ZM58.3198 34.078C57.7838 34.078 57.3118 33.974 56.9038 33.766C56.4958 33.558 56.1718 33.29 55.9318 32.962C55.6918 32.626 55.5398 32.262 55.4758 31.87H56.5078C56.6358 32.302 56.8638 32.622 57.1918 32.83C57.5198 33.038 57.8918 33.142 58.3078 33.142C58.8918 33.142 59.3438 32.958 59.6638 32.59C59.9838 32.214 60.1438 31.722 60.1438 31.114C60.1438 30.466 59.9678 29.978 59.6158 29.65C59.2638 29.322 58.8238 29.158 58.2958 29.158C57.7598 29.158 57.3758 29.278 57.1438 29.518C56.9198 29.758 56.7638 29.99 56.6758 30.214L55.5958 30.142L55.8238 25.63H60.5998V26.59H56.6878L56.5438 29.29H56.5918C56.9998 28.674 57.6398 28.366 58.5118 28.366C59.0318 28.366 59.4918 28.478 59.8918 28.702C60.2998 28.918 60.6158 29.234 60.8398 29.65C61.0638 30.058 61.1758 30.55 61.1758 31.126C61.1758 31.686 61.0598 32.19 60.8278 32.638C60.6038 33.086 60.2758 33.438 59.8438 33.694C59.4118 33.95 58.9038 34.078 58.3198 34.078ZM66.234 31.954L62.37 31.942V31.006L65.946 25.63H67.254V31.114H68.454V31.954H67.254V34.03H66.234V31.954ZM66.234 31.102V26.866L63.366 31.102H66.234Z" fill="black"/>
<path fill-rule="evenodd" clip-rule="evenodd" d="M40.5173 3.06039C38.871 1.42008 36.6815 0.516272 34.3489 0.51535C29.5426 0.51535 25.6308 4.40811 25.6289 9.19295C25.6283 10.7224 26.0298 12.2154 26.7929 13.5314L25.5558 18.0285L30.1784 16.8217C31.452 17.513 32.886 17.8774 34.3454 17.878H34.349C39.1548 17.878 43.0669 13.9847 43.0689 9.19987C43.0698 6.88107 42.1637 4.7007 40.5173 3.06039ZM34.349 16.4123H34.346C33.0455 16.4118 31.77 16.0641 30.6572 15.4069L30.3925 15.2506L27.6495 15.9667L28.3816 13.305L28.2093 13.0321C27.4838 11.8837 27.1006 10.5563 27.1012 9.19349C27.1028 5.21653 30.3541 1.98103 34.3519 1.98103C36.2877 1.98177 38.1075 2.73302 39.4758 4.09639C40.8442 5.45976 41.5974 7.27201 41.5966 9.19931C41.595 13.1766 38.3437 16.4123 34.349 16.4123ZM38.3245 11.0102C38.1066 10.9017 37.0354 10.3771 36.8357 10.3047C36.636 10.2324 36.4907 10.1962 36.3455 10.4133C36.2002 10.6303 35.7827 11.1188 35.6555 11.2635C35.5285 11.4082 35.4014 11.4263 35.1835 11.3177C34.9656 11.2092 34.2636 10.9803 33.4313 10.2415C32.7836 9.66658 32.3463 8.95643 32.2192 8.73937C32.0922 8.52228 32.2057 8.40491 32.3148 8.29682C32.4128 8.19966 32.5327 8.04357 32.6416 7.91693C32.7505 7.79031 32.7869 7.69987 32.8595 7.55516C32.9321 7.41044 32.8958 7.2838 32.8413 7.17527C32.7869 7.06674 32.3511 5.99944 32.1695 5.56529C31.9927 5.14246 31.8131 5.19967 31.6793 5.19305C31.5524 5.18676 31.407 5.18542 31.2617 5.18542C31.1165 5.18542 30.8805 5.23969 30.6807 5.45676C30.481 5.67384 29.9182 6.19844 29.9182 7.26572C29.9182 8.33299 30.6989 9.36408 30.8078 9.5088C30.9168 9.65353 32.3442 11.8438 34.5299 12.783C35.0497 13.0064 35.4555 13.1398 35.772 13.2398C36.2939 13.4048 36.7689 13.3815 37.1443 13.3257C37.5629 13.2634 38.4334 12.8011 38.615 12.2946C38.7966 11.7881 38.7966 11.3539 38.7421 11.2635C38.6876 11.173 38.5424 11.1188 38.3245 11.0102Z" fill="black"/>
</svg>
