<svg width="121" height="34" viewBox="0 0 121 34" fill="none" xmlns="http://www.w3.org/2000/svg">
<path d="M1.36958 23.8698H2.40158V24.8778H2.47358C2.57758 24.5978 2.76158 24.3618 3.02558 24.1698C3.29758 23.9698 3.63758 23.8698 4.04558 23.8698C4.17358 23.8698 4.27358 23.8778 4.34558 23.8938C4.42558 23.9018 4.51358 23.9218 4.60958 23.9538L4.57358 24.9618C4.44558 24.9218 4.33358 24.8938 4.23758 24.8778C4.14958 24.8618 4.03358 24.8538 3.88958 24.8538C2.89758 24.8538 2.40158 25.4418 2.40158 26.6178V30.1938H1.36958V23.8698ZM5.93127 23.8698H6.96327V30.1938H5.93127V23.8698ZM6.43527 22.6938C6.24327 22.6938 6.08327 22.6298 5.95527 22.5018C5.82727 22.3658 5.76327 22.2058 5.76327 22.0218C5.76327 21.8378 5.82727 21.6818 5.95527 21.5538C6.08327 21.4178 6.24327 21.3498 6.43527 21.3498C6.62727 21.3498 6.78727 21.4178 6.91527 21.5538C7.05127 21.6818 7.11927 21.8378 7.11927 22.0218C7.11927 22.2058 7.05127 22.3658 6.91527 22.5018C6.78727 22.6298 6.62727 22.6938 6.43527 22.6938ZM8.91842 21.2298H9.96242V26.2698H10.0104L12.4104 23.8698H13.5864L10.7904 26.7138L13.7064 30.1938H12.5184L10.0104 27.1098H9.96242V30.1938H8.91842V21.2298ZM15.7419 22.6938C15.5499 22.6938 15.3899 22.6298 15.2619 22.5018C15.1419 22.3738 15.0819 22.2138 15.0819 22.0218C15.0819 21.8298 15.1419 21.6698 15.2619 21.5418C15.3899 21.4138 15.5499 21.3498 15.7419 21.3498C15.9339 21.3498 16.0939 21.4178 16.2219 21.5538C16.3579 21.6818 16.4259 21.8378 16.4259 22.0218C16.4259 22.2058 16.3579 22.3658 16.2219 22.5018C16.0939 22.6298 15.9339 22.6938 15.7419 22.6938ZM14.5419 32.8218C14.2219 32.8218 13.9419 32.7898 13.7019 32.7258V31.9818C13.8379 32.0138 14.0259 32.0298 14.2659 32.0298C14.5539 32.0298 14.7659 31.9738 14.9019 31.8618C15.0379 31.7578 15.1219 31.6298 15.1539 31.4778C15.1859 31.3338 15.2019 31.1458 15.2019 30.9138V23.7858H16.2339L16.2459 31.1538C16.2459 31.6018 16.1339 31.9898 15.9099 32.3178C15.6859 32.6538 15.2299 32.8218 14.5419 32.8218ZM20.7811 30.2778C20.1411 30.2778 19.5971 30.1258 19.1491 29.8218C18.7091 29.5098 18.3771 29.1058 18.1531 28.6098C17.9291 28.1058 17.8171 27.5658 17.8171 26.9898C17.8171 26.4138 17.9291 25.8778 18.1531 25.3818C18.3771 24.8778 18.7091 24.4738 19.1491 24.1698C19.5971 23.8578 20.1411 23.7018 20.7811 23.7018C21.4211 23.7018 21.9611 23.8578 22.4011 24.1698C22.8491 24.4738 23.1811 24.8778 23.3971 25.3818C23.6211 25.8858 23.7331 26.4218 23.7331 26.9898C23.7331 27.5578 23.6211 28.0938 23.3971 28.5978C23.1731 29.1018 22.8371 29.5098 22.3891 29.8218C21.9491 30.1258 21.4131 30.2778 20.7811 30.2778ZM20.7811 29.3898C21.1731 29.3898 21.5131 29.2818 21.8011 29.0658C22.0971 28.8498 22.3211 28.5618 22.4731 28.2018C22.6251 27.8338 22.7011 27.4258 22.7011 26.9778C22.7011 26.2898 22.5291 25.7178 22.1851 25.2618C21.8411 24.8058 21.3731 24.5778 20.7811 24.5778C20.3811 24.5778 20.0331 24.6858 19.7371 24.9018C19.4491 25.1178 19.2291 25.4098 19.0771 25.7778C18.9251 26.1378 18.8491 26.5378 18.8491 26.9778C18.8491 27.6658 19.0211 28.2418 19.3651 28.7058C19.7091 29.1618 20.1811 29.3898 20.7811 29.3898ZM25.1938 29.2938L27.2098 27.4818L27.4258 27.3018C27.9378 26.8538 28.3378 26.4858 28.6258 26.1978C28.9218 25.9018 29.1658 25.5818 29.3578 25.2378C29.5578 24.8938 29.6578 24.5338 29.6578 24.1578C29.6578 23.7018 29.5178 23.3178 29.2378 23.0058C28.9658 22.6858 28.5498 22.5258 27.9898 22.5258C27.3258 22.5258 26.8738 22.7138 26.6338 23.0898C26.3938 23.4578 26.2738 23.8658 26.2738 24.3138V24.3978H25.2538C25.2538 23.9178 25.3458 23.4698 25.5298 23.0538C25.7138 22.6298 26.0098 22.2858 26.4178 22.0218C26.8338 21.7498 27.3578 21.6138 27.9898 21.6138C28.5898 21.6138 29.0898 21.7338 29.4898 21.9738C29.8898 22.2058 30.1818 22.5138 30.3658 22.8978C30.5578 23.2738 30.6538 23.6818 30.6538 24.1218C30.6538 24.6098 30.5458 25.0618 30.3298 25.4778C30.1138 25.8858 29.8498 26.2538 29.5378 26.5818C29.2258 26.9018 28.7978 27.2978 28.2538 27.7698L26.6098 29.2098V29.2698H30.7378V30.1938H25.1938V29.2938ZM32.2133 29.2938L34.2293 27.4818L34.4453 27.3018C34.9573 26.8538 35.3573 26.4858 35.6453 26.1978C35.9413 25.9018 36.1853 25.5818 36.3773 25.2378C36.5773 24.8938 36.6773 24.5338 36.6773 24.1578C36.6773 23.7018 36.5373 23.3178 36.2573 23.0058C35.9853 22.6858 35.5693 22.5258 35.0093 22.5258C34.3453 22.5258 33.8933 22.7138 33.6533 23.0898C33.4133 23.4578 33.2933 23.8658 33.2933 24.3138V24.3978H32.2733C32.2733 23.9178 32.3653 23.4698 32.5493 23.0538C32.7333 22.6298 33.0293 22.2858 33.4373 22.0218C33.8533 21.7498 34.3773 21.6138 35.0093 21.6138C35.6093 21.6138 36.1093 21.7338 36.5093 21.9738C36.9093 22.2058 37.2013 22.5138 37.3853 22.8978C37.5773 23.2738 37.6733 23.6818 37.6733 24.1218C37.6733 24.6098 37.5653 25.0618 37.3493 25.4778C37.1333 25.8858 36.8693 26.2538 36.5573 26.5818C36.2453 26.9018 35.8173 27.2978 35.2733 27.7698L33.6293 29.2098V29.2698H37.7573V30.1938H32.2133V29.2938ZM39.2329 29.2938L41.2489 27.4818L41.4649 27.3018C41.9769 26.8538 42.3769 26.4858 42.6649 26.1978C42.9609 25.9018 43.2049 25.5818 43.3969 25.2378C43.5969 24.8938 43.6969 24.5338 43.6969 24.1578C43.6969 23.7018 43.5569 23.3178 43.2769 23.0058C43.0049 22.6858 42.5889 22.5258 42.0289 22.5258C41.3649 22.5258 40.9129 22.7138 40.6729 23.0898C40.4329 23.4578 40.3129 23.8658 40.3129 24.3138V24.3978H39.2929C39.2929 23.9178 39.3849 23.4698 39.5689 23.0538C39.7529 22.6298 40.0489 22.2858 40.4569 22.0218C40.8729 21.7498 41.3969 21.6138 42.0289 21.6138C42.6289 21.6138 43.1289 21.7338 43.5289 21.9738C43.9289 22.2058 44.2209 22.5138 44.4049 22.8978C44.5969 23.2738 44.6929 23.6818 44.6929 24.1218C44.6929 24.6098 44.5849 25.0618 44.3689 25.4778C44.1529 25.8858 43.8889 26.2538 43.5769 26.5818C43.2649 26.9018 42.8369 27.2978 42.2929 27.7698L40.6489 29.2098V29.2698H44.7769V30.1938H39.2329V29.2938ZM51.5924 32.1738C50.5044 32.1738 49.5564 31.9498 48.7484 31.5018C47.9404 31.0538 47.3204 30.4338 46.8884 29.6418C46.4564 28.8418 46.2404 27.9298 46.2404 26.9058C46.2404 25.8418 46.4684 24.9138 46.9244 24.1218C47.3804 23.3298 48.0084 22.7218 48.8084 22.2978C49.6084 21.8738 50.5084 21.6618 51.5084 21.6618C52.5164 21.6618 53.4124 21.8778 54.1964 22.3098C54.9884 22.7338 55.6004 23.3138 56.0324 24.0498C56.4724 24.7778 56.6924 25.5898 56.6924 26.4858C56.6924 27.1178 56.5844 27.6498 56.3684 28.0818C56.1524 28.5058 55.8644 28.8258 55.5044 29.0418C55.1444 29.2498 54.7484 29.3538 54.3164 29.3538C53.9804 29.3538 53.6964 29.2858 53.4644 29.1498C53.2404 29.0058 53.0764 28.8618 52.9724 28.7178C52.8684 28.5738 52.7644 28.4058 52.6604 28.2138H52.5884C52.4924 28.5418 52.3044 28.8218 52.0244 29.0538C51.7524 29.2858 51.3924 29.4018 50.9444 29.4018C50.5044 29.4018 50.1284 29.2858 49.8164 29.0538C49.5124 28.8218 49.2804 28.5178 49.1204 28.1418C48.9684 27.7578 48.8924 27.3458 48.8924 26.9058C48.8924 26.4578 48.9684 26.0458 49.1204 25.6698C49.2724 25.2858 49.4964 24.9778 49.7924 24.7458C50.0964 24.5138 50.4684 24.3978 50.9084 24.3978C51.2684 24.3978 51.5724 24.4738 51.8204 24.6258C52.0684 24.7778 52.2484 24.9618 52.3604 25.1778H52.4204V24.4818H53.2484V26.4138C53.2484 26.8858 53.2684 27.2778 53.3084 27.5898C53.3484 27.8938 53.4524 28.1578 53.6204 28.3818C53.7964 28.5978 54.0644 28.7058 54.4244 28.7058C54.8884 28.7058 55.2484 28.5218 55.5044 28.1538C55.7604 27.7778 55.8884 27.2538 55.8884 26.5818C55.8884 25.7818 55.7044 25.0698 55.3364 24.4458C54.9684 23.8218 54.4484 23.3378 53.7764 22.9938C53.1044 22.6418 52.3324 22.4658 51.4604 22.4658C50.5804 22.4658 49.8084 22.6498 49.1444 23.0178C48.4884 23.3778 47.9804 23.8938 47.6204 24.5658C47.2604 25.2298 47.0804 26.0018 47.0804 26.8818C47.0804 27.7778 47.2644 28.5658 47.6324 29.2458C48.0004 29.9178 48.5324 30.4378 49.2284 30.8058C49.9244 31.1818 50.7484 31.3698 51.7004 31.3698H54.8564V32.1738H51.5924ZM51.1124 28.6458C51.5444 28.6458 51.8724 28.4818 52.0964 28.1538C52.3284 27.8258 52.4444 27.4058 52.4444 26.8938C52.4444 26.3738 52.3284 25.9498 52.0964 25.6218C51.8724 25.2858 51.5444 25.1178 51.1124 25.1178C50.6804 25.1178 50.3484 25.2818 50.1164 25.6098C49.8844 25.9378 49.7684 26.3618 49.7684 26.8818C49.7684 27.4018 49.8844 27.8258 50.1164 28.1538C50.3484 28.4818 50.6804 28.6458 51.1124 28.6458ZM61.2613 32.7258C61.0213 32.7258 60.8253 32.7098 60.6733 32.6778C60.5293 32.6458 60.3813 32.6018 60.2293 32.5458V31.6818C60.3333 31.7138 60.4733 31.7418 60.6493 31.7658C60.8253 31.7978 60.9973 31.8138 61.1653 31.8138C61.7893 31.8138 62.2573 31.6378 62.5693 31.2858C62.8893 30.9338 63.0493 30.4658 63.0493 29.8818V28.7418H62.9533C62.7853 29.1178 62.5133 29.4378 62.1373 29.7018C61.7693 29.9578 61.3213 30.0858 60.7933 30.0858C60.2653 30.0858 59.8013 29.9498 59.4013 29.6778C59.0013 29.4058 58.6893 29.0298 58.4653 28.5498C58.2493 28.0618 58.1413 27.5058 58.1413 26.8818C58.1413 26.2578 58.2493 25.7058 58.4653 25.2258C58.6893 24.7378 59.0013 24.3578 59.4013 24.0858C59.8013 23.8138 60.2653 23.6778 60.7933 23.6778C61.3453 23.6778 61.8053 23.8218 62.1733 24.1098C62.5493 24.3898 62.8133 24.7178 62.9653 25.0938H63.0493V23.8818H64.0933V29.8818C64.0933 30.3298 64.0013 30.7698 63.8173 31.2018C63.6413 31.6338 63.3413 31.9938 62.9173 32.2818C62.4933 32.5778 61.9413 32.7258 61.2613 32.7258ZM61.1293 29.1978C61.5373 29.1978 61.8853 29.0898 62.1733 28.8738C62.4613 28.6498 62.6733 28.3618 62.8093 28.0098C62.9533 27.6498 63.0253 27.2658 63.0253 26.8578C63.0253 26.4578 62.9533 26.0858 62.8093 25.7418C62.6733 25.3978 62.4613 25.1178 62.1733 24.9018C61.8933 24.6858 61.5453 24.5778 61.1293 24.5778C60.5133 24.5778 60.0413 24.8018 59.7133 25.2498C59.3933 25.6898 59.2333 26.2258 59.2333 26.8578C59.2333 27.2738 59.3013 27.6618 59.4373 28.0218C59.5813 28.3738 59.7933 28.6578 60.0733 28.8738C60.3613 29.0898 60.7133 29.1978 61.1293 29.1978ZM65.9527 23.8698H66.9727V25.0338H67.0687C67.0847 24.9538 67.1647 24.8098 67.3087 24.6018C67.4527 24.3858 67.6727 24.1818 67.9687 23.9898C68.2647 23.7978 68.6327 23.7018 69.0727 23.7018C69.5367 23.7018 69.9207 23.8098 70.2247 24.0258C70.5367 24.2418 70.7687 24.4738 70.9207 24.7218C71.0727 24.9698 71.1487 25.1258 71.1487 25.1898H71.2447C71.3567 24.9098 71.5767 24.5938 71.9047 24.2418C72.2407 23.8818 72.7527 23.7018 73.4407 23.7018C73.9527 23.7018 74.3807 23.8338 74.7247 24.0978C75.0687 24.3538 75.3207 24.6858 75.4807 25.0938C75.6487 25.5018 75.7327 25.9378 75.7327 26.4018V30.1938H74.7127V26.4978C74.7127 25.8898 74.5527 25.4298 74.2327 25.1178C73.9207 24.8058 73.5327 24.6498 73.0687 24.6498C72.5887 24.6498 72.1807 24.8138 71.8447 25.1418C71.5167 25.4618 71.3527 25.9138 71.3527 26.4978V30.1938H70.3327V26.4978C70.3327 25.8898 70.1727 25.4298 69.8527 25.1178C69.5407 24.8058 69.1527 24.6498 68.6887 24.6498C68.2087 24.6498 67.8007 24.8138 67.4647 25.1418C67.1367 25.4618 66.9727 25.9138 66.9727 26.4978V30.1938H65.9527V23.8698ZM79.8 30.2778C79.24 30.2778 78.76 30.1338 78.36 29.8458C77.968 29.5578 77.668 29.1658 77.46 28.6698C77.252 28.1738 77.148 27.6138 77.148 26.9898C77.148 26.3658 77.252 25.8058 77.46 25.3098C77.676 24.8058 77.984 24.4138 78.384 24.1338C78.792 23.8458 79.276 23.7018 79.836 23.7018C80.396 23.7018 80.848 23.8338 81.192 24.0978C81.536 24.3618 81.796 24.6778 81.972 25.0458H82.056V23.8698H83.1V30.1938H82.056V28.8978H81.972C81.78 29.2738 81.508 29.5978 81.156 29.8698C80.804 30.1418 80.352 30.2778 79.8 30.2778ZM80.124 29.3898C80.74 29.3898 81.212 29.1618 81.54 28.7058C81.868 28.2418 82.032 27.6698 82.032 26.9898C82.032 26.3098 81.868 25.7418 81.54 25.2858C81.212 24.8218 80.74 24.5898 80.124 24.5898C79.492 24.5898 79.012 24.8178 78.684 25.2738C78.364 25.7298 78.204 26.2978 78.204 26.9778C78.204 27.6658 78.364 28.2418 78.684 28.7058C79.012 29.1618 79.492 29.3898 80.124 29.3898ZM85.0094 23.8698H86.0414V30.1938H85.0094V23.8698ZM85.5134 22.6938C85.3214 22.6938 85.1614 22.6298 85.0334 22.5018C84.9054 22.3658 84.8414 22.2058 84.8414 22.0218C84.8414 21.8378 84.9054 21.6818 85.0334 21.5538C85.1614 21.4178 85.3214 21.3498 85.5134 21.3498C85.7054 21.3498 85.8654 21.4178 85.9934 21.5538C86.1294 21.6818 86.1974 21.8378 86.1974 22.0218C86.1974 22.2058 86.1294 22.3658 85.9934 22.5018C85.8654 22.6298 85.7054 22.6938 85.5134 22.6938ZM89.5805 30.2418C89.1085 30.2418 88.7565 30.1658 88.5245 30.0138C88.2925 29.8618 88.1445 29.6658 88.0805 29.4258C88.0245 29.1778 87.9965 28.8578 87.9965 28.4658L88.0085 21.1938H89.0405V28.3098C89.0405 28.6138 89.0525 28.8418 89.0765 28.9938C89.1085 29.1378 89.1845 29.2538 89.3045 29.3418C89.4325 29.4298 89.6325 29.4738 89.9045 29.4738C90.0725 29.4738 90.2205 29.4618 90.3485 29.4378V30.1818C90.1325 30.2218 89.8765 30.2418 89.5805 30.2418ZM92.478 30.2778C92.278 30.2778 92.11 30.2098 91.974 30.0738C91.846 29.9298 91.782 29.7618 91.782 29.5698C91.782 29.3778 91.846 29.2178 91.974 29.0898C92.11 28.9538 92.278 28.8858 92.478 28.8858C92.678 28.8858 92.842 28.9538 92.97 29.0898C93.106 29.2178 93.174 29.3778 93.174 29.5698C93.174 29.7618 93.106 29.9298 92.97 30.0738C92.834 30.2098 92.67 30.2778 92.478 30.2778ZM97.7152 30.2778C97.0592 30.2778 96.5032 30.1218 96.0472 29.8098C95.5992 29.4978 95.2672 29.0938 95.0512 28.5978C94.8352 28.0938 94.7272 27.5578 94.7272 26.9898C94.7272 26.4218 94.8352 25.8898 95.0512 25.3938C95.2672 24.8898 95.5992 24.4818 96.0472 24.1698C96.5032 23.8578 97.0592 23.7018 97.7152 23.7018C98.5312 23.7018 99.1712 23.9378 99.6352 24.4098C100.107 24.8818 100.391 25.4618 100.487 26.1498H99.4792C99.4072 25.6858 99.2232 25.3098 98.9272 25.0218C98.6312 24.7258 98.2312 24.5778 97.7272 24.5778C97.0872 24.5778 96.5992 24.8098 96.2632 25.2738C95.9352 25.7298 95.7712 26.3018 95.7712 26.9898C95.7712 27.6778 95.9352 28.2538 96.2632 28.7178C96.5992 29.1738 97.0872 29.4018 97.7272 29.4018C98.2312 29.4018 98.6312 29.2578 98.9272 28.9698C99.2232 28.6818 99.4072 28.3018 99.4792 27.8298H100.487C100.391 28.5178 100.107 29.0978 99.6352 29.5698C99.1712 30.0418 98.5312 30.2778 97.7152 30.2778ZM104.605 30.2778C103.965 30.2778 103.421 30.1258 102.973 29.8218C102.533 29.5098 102.201 29.1058 101.977 28.6098C101.753 28.1058 101.641 27.5658 101.641 26.9898C101.641 26.4138 101.753 25.8778 101.977 25.3818C102.201 24.8778 102.533 24.4738 102.973 24.1698C103.421 23.8578 103.965 23.7018 104.605 23.7018C105.245 23.7018 105.785 23.8578 106.225 24.1698C106.673 24.4738 107.005 24.8778 107.221 25.3818C107.445 25.8858 107.557 26.4218 107.557 26.9898C107.557 27.5578 107.445 28.0938 107.221 28.5978C106.997 29.1018 106.661 29.5098 106.213 29.8218C105.773 30.1258 105.237 30.2778 104.605 30.2778ZM104.605 29.3898C104.997 29.3898 105.337 29.2818 105.625 29.0658C105.921 28.8498 106.145 28.5618 106.297 28.2018C106.449 27.8338 106.525 27.4258 106.525 26.9778C106.525 26.2898 106.353 25.7178 106.009 25.2618C105.665 24.8058 105.197 24.5778 104.605 24.5778C104.205 24.5778 103.857 24.6858 103.561 24.9018C103.273 25.1178 103.053 25.4098 102.901 25.7778C102.749 26.1378 102.673 26.5378 102.673 26.9778C102.673 27.6658 102.845 28.2418 103.189 28.7058C103.533 29.1618 104.005 29.3898 104.605 29.3898ZM109.066 23.8698H110.086V25.0338H110.182C110.198 24.9538 110.278 24.8098 110.422 24.6018C110.566 24.3858 110.786 24.1818 111.082 23.9898C111.378 23.7978 111.746 23.7018 112.186 23.7018C112.65 23.7018 113.034 23.8098 113.338 24.0258C113.65 24.2418 113.882 24.4738 114.034 24.7218C114.186 24.9698 114.262 25.1258 114.262 25.1898H114.358C114.47 24.9098 114.69 24.5938 115.018 24.2418C115.354 23.8818 115.866 23.7018 116.554 23.7018C117.066 23.7018 117.494 23.8338 117.838 24.0978C118.182 24.3538 118.434 24.6858 118.594 25.0938C118.762 25.5018 118.846 25.9378 118.846 26.4018V30.1938H117.826V26.4978C117.826 25.8898 117.666 25.4298 117.346 25.1178C117.034 24.8058 116.646 24.6498 116.182 24.6498C115.702 24.6498 115.294 24.8138 114.958 25.1418C114.63 25.4618 114.466 25.9138 114.466 26.4978V30.1938H113.446V26.4978C113.446 25.8898 113.286 25.4298 112.966 25.1178C112.654 24.8058 112.266 24.6498 111.802 24.6498C111.322 24.6498 110.914 24.8138 110.578 25.1418C110.25 25.4618 110.086 25.9138 110.086 26.4978V30.1938H109.066V23.8698Z" fill="black"/>
<path d="M68.8604 14.1923H51.7643C50.8214 14.1923 50.0547 13.4255 50.0547 12.4826V2.22496C50.0547 1.28211 50.8214 0.51535 51.7643 0.51535H68.8604C69.8033 0.51535 70.57 1.28211 70.57 2.22496V12.4826C70.57 13.4255 69.8033 14.1923 68.8604 14.1923ZM51.7643 1.37016C51.2929 1.37016 50.9095 1.75354 50.9095 2.22496V12.4826C50.9095 12.9541 51.2929 13.3374 51.7643 13.3374H68.8604C69.3319 13.3374 69.7152 12.9541 69.7152 12.4826V2.22496C69.7152 1.75354 69.3319 1.37016 68.8604 1.37016H51.7643Z" fill="black"/>
<path d="M60.3125 9.57242L52.8146 4.72097C52.7194 4.65942 52.6525 4.56256 52.6287 4.45171C52.6049 4.34086 52.6261 4.22509 52.6877 4.12987C52.7492 4.03465 52.8461 3.96778 52.9569 3.94398C53.0678 3.92017 53.1835 3.94138 53.2788 4.00293L60.3125 8.55435L67.3463 4.00293C67.4415 3.94138 67.5573 3.92017 67.6681 3.94398C67.779 3.96778 67.8759 4.03465 67.9374 4.12987C67.999 4.22509 68.0202 4.34086 67.9964 4.45171C67.9725 4.56256 67.9057 4.65942 67.8105 4.72097L60.3125 9.57242ZM52.6197 11.6278C52.5279 11.6279 52.4386 11.5985 52.3648 11.5439C52.2911 11.4892 52.2368 11.4123 52.2102 11.3245C52.1835 11.2367 52.1859 11.1426 52.2168 11.0562C52.2478 10.9699 52.3057 10.8957 52.3821 10.8448L56.2287 8.28038C56.2754 8.24923 56.3278 8.22758 56.3828 8.21667C56.4379 8.20577 56.4946 8.20581 56.5496 8.2168C56.6047 8.2278 56.657 8.24952 56.7037 8.28075C56.7503 8.31197 56.7903 8.35207 56.8215 8.39877C56.8527 8.44547 56.8743 8.49785 56.8852 8.55291C56.8961 8.60798 56.8961 8.66465 56.8851 8.7197C56.8741 8.77474 56.8524 8.82709 56.8211 8.87374C56.7899 8.92039 56.7498 8.96043 56.7031 8.99158L52.8565 11.556C52.7863 11.6027 52.704 11.6276 52.6197 11.6278ZM68.0054 11.6278C67.9242 11.6278 67.8417 11.6043 67.7686 11.556L63.922 8.99158C63.8753 8.96043 63.8351 8.92039 63.8039 8.87374C63.7727 8.82709 63.751 8.77474 63.74 8.7197C63.729 8.66465 63.7289 8.60798 63.7399 8.55291C63.7508 8.49785 63.7724 8.44547 63.8036 8.39877C63.8347 8.35207 63.8748 8.31197 63.9214 8.28075C63.9681 8.24952 64.0204 8.2278 64.0754 8.2168C64.1305 8.20581 64.1872 8.20577 64.2422 8.21667C64.2973 8.22758 64.3497 8.24923 64.3964 8.28038L68.243 10.8448C68.3194 10.8957 68.3773 10.9699 68.4082 11.0562C68.4392 11.1426 68.4415 11.2367 68.4149 11.3245C68.3882 11.4123 68.334 11.4892 68.2603 11.5439C68.1865 11.5985 68.0971 11.6279 68.0054 11.6278Z" fill="black"/>
</svg>
