<svg width="127" height="35" viewBox="0 0 127 35" fill="none" xmlns="http://www.w3.org/2000/svg">
<path d="M92.9845 2.92399C92.9845 1.59442 94.081 0.51532 95.4328 0.51532H123.661C125.013 0.51532 126.109 1.59442 126.109 2.92399V31.7315C126.109 33.0615 125.013 34.1398 123.661 34.1398H95.4328C94.081 34.1398 92.9845 33.0615 92.9845 31.732V2.92399Z" fill="#006699"/>
<path d="M0.257935 28.6808H14.0818V24.1024H5.26156V6.63712H0.257935V28.6808ZM21.0808 28.6808V13.4976H16.0776V28.6808H21.0808ZM18.5796 11.4249C20.324 11.4249 21.41 10.259 21.41 8.80105C21.3777 7.3114 20.324 6.1785 18.6129 6.1785C16.9013 6.1785 15.7821 7.31184 15.7821 8.80105C15.7821 10.259 16.868 11.4249 18.5469 11.4249H18.5796ZM23.4036 28.6808H28.4068V20.2015C28.4068 19.7477 28.4391 19.2939 28.5716 18.9707C28.9327 18.064 29.7559 17.1247 31.1383 17.1247C32.9492 17.1247 33.6736 18.5173 33.6736 20.5573V28.6803H38.6759V19.9748C38.6759 15.3109 36.2075 13.1408 32.9155 13.1408C30.2167 13.1408 29.0315 14.6627 28.3731 15.6994H28.4068V13.4976H23.4036C23.4696 14.9224 23.4036 28.6808 23.4036 28.6808ZM45.7343 6.63712H40.7311V28.6808H45.7343V23.758L46.9847 22.17L50.9019 28.6808H57.0566L50.4743 19.2555L56.2338 12.8436H50.2111C50.2111 12.8436 46.0967 18.58 45.7343 19.2608V6.63712Z" fill="black"/>
<path d="M70.4361 22.3473C70.5021 21.9575 70.6009 21.2095 70.6009 20.3637C70.6009 16.4389 68.6257 12.4542 63.4253 12.4542C57.8625 12.4542 55.2949 16.8918 55.2949 20.9167C55.2949 25.8946 58.4221 29.0031 63.8857 29.0031C66.0585 29.0031 68.0656 28.6803 69.7121 27.9999L69.0537 24.6669C67.7037 25.1185 66.3213 25.3447 64.6101 25.3447C62.2733 25.3447 60.233 24.3767 60.0682 22.3147L70.4361 22.3464V22.3473ZM60.0354 18.9332C60.167 17.6375 61.0234 15.7259 63.1626 15.7259C65.4333 15.7259 65.9606 17.7667 65.9606 18.9332H60.0354ZM82.9502 6.6371V14.268H82.8842C82.1597 13.1999 80.6458 12.4872 78.6391 12.4872C74.7874 12.4872 71.3975 15.5962 71.4298 20.9075C71.4298 25.8307 74.4914 29.0371 78.309 29.0371C80.383 29.0371 82.3574 28.1295 83.3454 26.3806H83.4438L83.6418 28.6808H88.085C88.0194 27.6118 87.9529 25.7658 87.9529 23.952V6.63666H82.9497L82.9502 6.6371ZM82.9502 21.6527C82.9502 22.0408 82.9174 22.4302 82.8509 22.753C82.5558 24.1465 81.3706 25.1171 79.9222 25.1171C77.8491 25.1171 76.499 23.4334 76.499 20.7778C76.499 18.2845 77.6519 16.2762 79.9554 16.2762C81.5022 16.2762 82.5882 17.3447 82.8846 18.6721C82.9502 18.9645 82.9502 19.2886 82.9502 19.5796V21.6527Z" fill="black"/>
<path d="M103.026 28.6622V13.479H98.0226V28.6622H103.026ZM100.525 11.4064C102.269 11.4064 103.355 10.2404 103.355 8.78338C103.323 7.29328 102.269 6.15994 100.558 6.15994C98.8459 6.15994 97.7275 7.29328 97.7275 8.78338C97.7275 10.2404 98.8131 11.4064 100.492 11.4064H100.525H100.525ZM105.795 28.6622H110.798V20.1842C110.798 19.7309 110.831 19.2767 110.963 18.953C111.324 18.0459 112.147 17.107 113.53 17.107C115.34 17.107 116.064 18.4992 116.064 20.5406V28.6622H121.067V19.9567C121.067 15.2932 118.599 13.1231 115.307 13.1231C112.609 13.1231 111.423 14.6445 110.765 15.6809H110.798V13.4795H105.795C105.861 14.9038 105.795 28.6622 105.795 28.6622Z" fill="white"/>
</svg>
